# xmcd
#
# Track frame offsets:
#	150
#	2799
#	13513
#	25255
#	36117
#	37830
#	43048
#	54749
#	64321
#	78642
#	92426
#	94726
#	112117
#	121546
#	133364
#	143888
#	153474
#	166552
#	174962
#
# Disc length: 2480 seconds
#
# Revision: 0
# Processed by: cddbd v1.5.2PL0 Copyright (c) Steve Scherf et al.
# Submitted via: dBpowerAMP V4.0
#
DISCID=ee09ae13
DTITLE=Various Artist - Live In Scandinavia
DYEAR=1970
DGENRE=Country
TTITLE0=Gunnar Eide and Murray Kash - Opening Announcements
TTITLE1=Don Rich and The Buckaroos - Up On Cripple Creek
TTITLE2=Don Rich and The Buckaroos - Okie From Muskogee
TTITLE3=Don Rich and The Buckaroos - The Night They Drove Old Dixie Down
TTITLE4=Don Rich and The Buckaroos - Buckaroo
TTITLE5=Murray Kash - Murray Kash introduces Buddy Alan
TTITLE6=Buddy Alan - Freeborn Man
TTITLE7=Buddy Alan - Big Mama's Medicine Show
TTITLE8=The Hagers - I'm Jesse James
TTITLE9=The Hagars - Six Days On The Road
TTITLE10=Murray Kash - Murray Kash introduces Buck Owens
TTITLE11=Buck Owens - Act Naturally-Together Again
TTITLE12=Buck Owens and Gunnar Eide - Gunnar Eide wishes Buck Owens welcome
TTITLE13=Buck Owens - Love's Gonna Live Here-Cryin' Time-Sam's Place
TTITLE14=Buck Owens - I've Got A Tiger By The Tail-Open Up Your Heart
TTITLE15=Buck Owens - Orange Blossom Special
TTITLE16=Buck Owens and Buddy Alan - Let The World Keep On Turning
TTITLE17=Buck Owens, Buddy Alan and The Hagers - Tall Dark Stranger
TTITLE18=Buck Owens, Buddy Alan and The Hagers - Johnny B. Goode
EXTD=Buck Owens - Live In Scandinavia, Capitol Records, 1970
EXTT0=
EXTT1=
EXTT2=
EXTT3=
EXTT4=
EXTT5=
EXTT6=
EXTT7=
EXTT8=
EXTT9=
EXTT10=
EXTT11=
EXTT12=
EXTT13=
EXTT14=
EXTT15=
EXTT16=
EXTT17=
EXTT18=
PLAYORDER=
